<svg id="Capa_1" enable-background="new 0 0 512 512" height="512" viewBox="0 0 512 512" width="512" xmlns="http://www.w3.org/2000/svg" xmlns:xlink="http://www.w3.org/1999/xlink"><linearGradient id="SVGID_1_" gradientUnits="userSpaceOnUse" x1="143.292" x2="354.942" y1="-15.226" y2="547.243"><stop offset=".0569" stop-color="#fff" stop-opacity="0"/><stop offset=".2544" stop-color="#eef" stop-opacity=".302"/><stop offset=".5092" stop-color="#dedeff" stop-opacity=".691"/><stop offset=".712" stop-color="#d9d9ff"/></linearGradient><g><g><path d="m20.337 133.512c-23.967 39.398-26.493 107.613-8.937 150.256 15.377 37.351 45.966 72.409 86.12 76.801 14.766 1.615 29.858-1.024 44.472 1.638 50.257 9.152 68.952 71.09 108.01 104.014 27.182 22.913 64.898 31.021 100.174 26.607s68.302-20.363 97.376-40.824c22.957-16.157 44.436-36.022 55.764-61.707 23.744-53.839-4.19-118.501-47.587-158.239-13.516-12.377-28.581-23.294-39.875-37.727s-18.48-33.695-13.099-51.214c4.293-13.977 15.849-24.812 20.227-38.763 5.958-18.984-3.035-40.281-17.802-53.616s-34.308-20.039-53.666-24.64c-81.103-19.28-258.823-11.524-331.177 107.414z" fill="url(#SVGID_1_)"/></g><g><g><path d="m331.131 137.471h-150.262l-13.858-35.963c-2.524-6.551 2.311-13.596 9.331-13.596h159.316c7.02 0 11.856 7.045 9.331 13.596z" fill="#00c" opacity=".1"/><g><g><g><path d="m451.864 459.742h-391.728c-5.178 0-9.376-4.198-9.376-9.376v-266.358c0-5.178 4.198-9.376 9.376-9.376h391.729c5.178 0 9.376 4.198 9.376 9.376v266.358c0 5.179-4.198 9.376-9.377 9.376z" fill="#00c" opacity=".1"/><path d="m451.864 434.231h-391.728c-5.178 0-9.376-4.198-9.376-9.376v-266.359c0-5.178 4.198-9.376 9.376-9.376h391.729c5.178 0 9.376 4.198 9.376 9.376v266.358c0 5.179-4.198 9.377-9.377 9.377z" fill="#ff4d4d"/><g><path d="m439.705 410.488h-367.41c-2.761 0-5-2.239-5-5v-256.368h377.41v256.368c0 2.762-2.239 5-5 5z" fill="#ffe8dc"/><path d="m256 164.105v246.384s-34.276-9.325-84.391-9.325c-37.652 0-66.364 5.263-78.316 7.881-3.122.684-6.076-1.687-6.076-4.883v-236.134c0-2.332 1.61-4.35 3.883-4.874 10.301-2.374 40.309-8.374 80.509-8.374 50.115 0 84.391 9.325 84.391 9.325z" fill="#ffd6bb"/><path d="m439.705 410.488h-183.705v-261.368h188.705v256.368c0 2.762-2.239 5-5 5z" fill="#ffd6bb"/><g><path d="m256 164.105v246.384s34.276-9.325 84.391-9.325c37.653 0 66.364 5.263 78.316 7.881 3.122.684 6.076-1.687 6.076-4.883v-236.134c0-2.332-1.611-4.35-3.883-4.874-10.301-2.374-40.309-8.374-80.509-8.374-50.115 0-84.391 9.325-84.391 9.325z" fill="#ffc599"/></g></g><g><path d="m256 143.554v246.384s34.276-9.325 84.391-9.325c37.653 0 66.364 5.263 78.316 7.881 3.122.684 6.076-1.687 6.076-4.883v-236.134c0-2.332-1.611-4.35-3.883-4.874-10.301-2.374-40.309-8.374-80.509-8.374-50.115.001-84.391 9.325-84.391 9.325z" fill="#ffe8dc"/><circle cx="333.169" cy="158.18" fill="#ffd6bb" r="32.484"/><path d="m256 143.554v246.384s-34.276-9.325-84.391-9.325c-37.652 0-66.364 5.263-78.316 7.881-3.122.684-6.076-1.687-6.076-4.883v-236.134c0-2.332 1.61-4.35 3.883-4.874 10.301-2.374 40.309-8.374 80.509-8.374 50.115.001 84.391 9.325 84.391 9.325z" fill="#fff3ee"/><circle cx="178.831" cy="158.18" fill="#ffe8dc" r="32.484"/></g></g></g><g><path d="m334.621 68.469h-157.242v-16.416c0-5.523 4.477-10 10-10h137.242c5.523 0 10 4.477 10 10z" fill="#ff8b00"/><path d="m331.131 111.959h-150.262l-13.858-35.963c-2.524-6.551 2.311-13.596 9.331-13.596h159.316c7.02 0 11.856 7.045 9.331 13.596z" fill="#ffc599"/><g><path d="m341.74 84.434-3.86 10h-163.76l-3.86-10z" fill="#ffab66"/></g><path d="m331.13 111.954v170.78c-45.03 1.04-75.13 9.22-75.13 9.22s-30.1-8.18-75.13-9.22v-170.78z" fill="#ffab66"/><path d="m331.13 111.954v78.71c-16.99-1.06-30.45-15.17-30.45-32.42 0-1.74.14-3.44.41-5.1h-90.18c.27 1.66.41 3.36.41 5.1 0 17.25-13.46 31.36-30.45 32.42v-78.71z" fill="#ff9d33"/><g fill="#ff8b00"><path d="m227.02 195.304v91.16c-6.55-.92-14.06-1.8-22.38-2.48v-88.68c0-6.18 5.01-11.18 11.19-11.18 3.09 0 5.89 1.25 7.91 3.27 2.03 2.02 3.28 4.82 3.28 7.91z"/><path d="m267.19 195.304v94.14c-7.22 1.43-11.19 2.51-11.19 2.51s-3.97-1.08-11.19-2.51v-94.14c0-6.18 5.01-11.18 11.19-11.18 3.09 0 5.89 1.25 7.91 3.27 2.03 2.02 3.28 4.82 3.28 7.91z"/><path d="m307.36 195.304v88.68c-8.32.68-15.83 1.56-22.38 2.48v-91.16c0-6.18 5.01-11.18 11.19-11.18 3.09 0 5.89 1.25 7.91 3.27 2.03 2.02 3.28 4.82 3.28 7.91z"/></g><g><g><path d="m333.169 108.525h-154.338l20.372 27.382h113.593z" fill="#ffe8dc"/></g><g><circle cx="178.831" cy="141.009" fill="#ffe8dc" r="32.484"/><circle cx="178.831" cy="141.009" fill="#ffc599" r="11.654"/><circle cx="333.169" cy="141.009" fill="#ffe8dc" r="32.484"/><circle cx="333.169" cy="141.009" fill="#ffc599" r="11.654"/></g></g></g><path d="m451.864 144.12h-22.654c-1.113-3.15-3.763-5.6-7.187-6.389-4.715-1.087-12.551-2.71-23.104-4.271-2.727-.396-5.274 1.483-5.678 4.215s1.483 5.273 4.215 5.678c10.766 1.592 18.605 3.266 22.326 4.123l-.006 236.134c-13.638-2.987-42.086-7.997-79.385-7.997-38.311 0-67.206 5.302-79.392 7.989v-87.714c10.054-2.303 39.856-8.254 79.392-8.254 2.761 0 5-2.238 5-5s-2.239-5-5-5c-1.434 0-2.854.008-4.261.022v-99.292c19.288-1.517 34.522-17.685 34.522-37.356 0-18.501-13.477-33.904-31.126-36.934l10.127-26.281c1.778-4.614 1.169-9.804-1.629-13.882-2.031-2.959-5.025-5.047-8.404-5.973v-5.887c0-8.271-6.729-15-15-15h-137.241c-8.271 0-15 6.729-15 15v5.887c-3.379.926-6.373 3.014-8.404 5.973-2.799 4.078-3.408 9.268-1.629 13.882l10.127 26.281c-14.078 2.417-25.495 12.704-29.541 26.16-26.445 1.856-45.771 5.841-52.955 7.497-3.424.789-6.075 3.238-7.187 6.389h-22.654c-7.927 0-14.376 6.449-14.376 14.376v266.358c0 7.927 6.449 14.376 14.376 14.376h391.729c7.927 0 14.376-6.449 14.376-14.376v-266.358c0-7.927-6.449-14.376-14.377-14.376zm-91.211-3.111c0 15.155-12.33 27.484-27.484 27.484s-27.484-12.329-27.484-27.484 12.33-27.484 27.484-27.484 27.484 12.329 27.484 27.484zm-173.274-93.956h137.241c2.757 0 5 2.243 5 5v5.347h-147.241v-5.348c0-2.756 2.244-4.999 5-4.999zm-8.548 66.471c15.155 0 27.484 12.329 27.484 27.484s-12.33 27.484-27.484 27.484-27.484-12.329-27.484-27.484 12.329-27.484 27.484-27.484zm-86.608 33.952c6.747-1.554 24.573-5.233 49.14-7.1-.004.211-.016.421-.016.633 0 20.669 16.815 37.484 37.484 37.484s37.484-16.815 37.484-37.484c0-19.234-14.565-35.123-33.243-37.238l-11.396-29.573c-.602-1.562-.404-3.248.543-4.627.947-1.38 2.45-2.171 4.123-2.171h159.315c1.673 0 3.176.791 4.123 2.171.947 1.379 1.145 3.065.543 4.627l-11.396 29.573c-18.678 2.115-33.243 18.003-33.243 37.238 0 18.263 13.131 33.508 30.446 36.812v100.063c-37.766 1.3-64.026 7.374-70.131 8.909-6.105-1.536-32.365-7.61-70.131-8.909v-69.879c0-2.762-2.239-5-5-5s-5 2.238-5 5v69.651c-1.407-.014-2.827-.022-4.261-.022-2.761 0-5 2.238-5 5s2.239 5 5 5c39.537 0 69.34 5.95 79.392 8.253v87.712c-12.197-2.688-41.103-7.987-79.392-7.987-37.298 0-65.747 5.01-79.391 7.998zm364.018 277.378c0 2.413-1.963 4.376-4.376 4.376h-391.729c-2.413 0-4.376-1.963-4.376-4.376v-266.358c0-2.413 1.963-4.376 4.376-4.376h22.082v229.491c0 3.044 1.359 5.883 3.73 7.79 2.373 1.909 5.442 2.633 8.415 1.977 10.662-2.334 39.532-7.765 77.246-7.765 48.776 0 82.744 9.058 83.079 9.148.103.028.207.042.31.063.088.018.173.04.262.053.225.034.45.053.675.056.021 0 .042.005.064.005.247 0 .496-.024.745-.062.078-.012.153-.031.23-.046.112-.022.224-.037.336-.068.337-.092 34.305-9.149 83.081-9.149 37.714 0 66.584 5.431 77.246 7.766 2.975.652 6.044-.069 8.416-1.979 2.37-1.907 3.729-4.746 3.729-7.789v-229.491h22.082c2.413 0 4.376 1.963 4.376 4.376v266.358z" fill="#00c"/><g><g><g><path d="m220.992 318.519h-18.583c-2.762 0-5-2.238-5-5s2.238-5 5-5h18.583c2.762 0 5 2.238 5 5s-2.239 5-5 5z" fill="#ff4d4d"/></g><g><path d="m220.992 336.9h-84.095c-2.762 0-5-2.238-5-5s2.238-5 5-5h84.095c2.762 0 5 2.238 5 5s-2.239 5-5 5z" fill="#ff9d33"/></g><g><path d="m220.992 355.282h-84.095c-2.762 0-5-2.238-5-5s2.238-5 5-5h84.095c2.762 0 5 2.238 5 5s-2.239 5-5 5z" fill="#ff9d33"/></g></g><g><g><path d="m291.008 318.519h18.583c2.762 0 5-2.238 5-5s-2.238-5-5-5h-18.583c-2.762 0-5 2.238-5 5s2.239 5 5 5z" fill="#ff4d4d"/></g><g><path d="m291.008 336.9h84.095c2.762 0 5-2.238 5-5s-2.238-5-5-5h-84.095c-2.762 0-5 2.238-5 5s2.239 5 5 5z" fill="#ff9d33"/></g><g><path d="m291.008 355.282h84.095c2.762 0 5-2.238 5-5s-2.238-5-5-5h-84.095c-2.762 0-5 2.238-5 5s2.239 5 5 5z" fill="#ff9d33"/></g></g></g></g></g><g><path d="m404.147 77.278c-1.28 0-2.559-.488-3.536-1.465l-4.964-4.964-4.964 4.964c-1.953 1.953-5.118 1.953-7.071 0-1.953-1.952-1.953-5.118 0-7.07l8.5-8.5c1.953-1.953 5.118-1.953 7.071 0l8.5 8.5c1.953 1.952 1.953 5.118 0 7.07-.977.977-2.256 1.465-3.536 1.465z" fill="#ff4d4d"/></g><g><path d="m234.492 477.018c-1.28 0-2.559-.488-3.536-1.465l-4.964-4.964-4.964 4.964c-1.953 1.953-5.118 1.953-7.071 0-1.953-1.952-1.953-5.118 0-7.07l8.5-8.5c1.953-1.953 5.118-1.953 7.071 0l8.5 8.5c1.953 1.952 1.953 5.118 0 7.07-.977.976-2.257 1.465-3.536 1.465z" fill="#ff4d4d"/></g><g><path d="m462.077 472.768c-1.28 0-2.559-.488-3.536-1.465l-4.964-4.964-4.964 4.964c-1.953 1.953-5.118 1.953-7.071 0-1.953-1.952-1.953-5.118 0-7.07l8.5-8.5c1.953-1.953 5.118-1.953 7.071 0l8.5 8.5c1.953 1.952 1.953 5.118 0 7.07-.977.976-2.257 1.465-3.536 1.465z" fill="#4d4dff"/></g><path d="m429.308 121.367c-1.031 0-2.063-.318-2.939-.955l-3.241-2.354-3.241 2.354c-1.752 1.273-4.125 1.273-5.878 0-1.752-1.272-2.486-3.529-1.816-5.59l1.238-3.811-3.241-2.355c-1.752-1.273-2.486-3.53-1.816-5.59.669-2.061 2.589-3.455 4.755-3.455h4.006l1.238-3.811c.669-2.061 2.589-3.455 4.755-3.455s4.086 1.395 4.755 3.455l1.238 3.811h4.006c2.166 0 4.086 1.395 4.755 3.455s-.064 4.316-1.816 5.59l-3.241 2.355 1.238 3.811c.669 2.061-.064 4.317-1.816 5.59-.877.637-1.908.955-2.939.955z" fill="#ff9d33"/><path d="m106.666 111.856c-1.031 0-2.063-.318-2.939-.955-1.752-1.273-2.486-3.53-1.816-5.59l1.238-3.811-3.241-2.355c-1.752-1.273-2.486-3.53-1.816-5.59.669-2.061 2.589-3.455 4.755-3.455h4.006l1.238-3.811c.669-2.061 2.589-3.455 4.755-3.455 2.167 0 4.086 1.395 4.755 3.455l1.238 3.811h4.007c2.166 0 4.086 1.395 4.755 3.455s-.064 4.317-1.816 5.59l-3.242 2.355 1.238 3.811c.669 2.06-.064 4.316-1.816 5.59-1.752 1.273-4.125 1.273-5.878 0l-3.241-2.354-3.242 2.354c-.876.637-1.907.955-2.938.955z" fill="#4d4dff"/></g></g></svg>