<svg id="Capa_1" enable-background="new 0 0 497 497" height="512" viewBox="0 0 497 497" width="512" xmlns="http://www.w3.org/2000/svg"><g><path d="m136.5 227h45v-60l-22.5-30-22.5 30z" fill="#acd2f6"/><path d="m331.5 227h45v-60l-22.5-30-22.5 30z" fill="#acd2f6"/><path d="m256.5 0c-66.168 0-120 54.28-120 121v46h45v-47c0-41.355 33.645-75 75-75s75 33.645 75 75v47h45v-46c0-66.72-53.832-121-120-121z" fill="#c4f3ff"/><path d="m399 497h-22.5l-90-150 90-150h22.5c4.142 0 7.5 3.358 7.5 7.5v285c0 4.142-3.358 7.5-7.5 7.5z" fill="#5c2bc8"/><path d="m376.5 497h-262.5c-4.142 0-7.5-3.358-7.5-7.5v-285c0-4.142 3.358-7.5 7.5-7.5h262.5z" fill="#4e4cd3"/><path d="m180.5 407-15 30 15 30h30c8.284 0 15-6.716 15-15v-30c0-8.284-6.716-15-15-15z" fill="#95b0ed"/><path d="m90.5 422v30c0 8.284 6.716 15 15 15h75c8.284 0 15-6.716 15-15v-30c0-8.284-6.716-15-15-15h-75c-8.284 0-15 6.716-15 15z" fill="#acd2f6"/><path d="m180.5 317-15 30 15 30h30c8.284 0 15-6.716 15-15v-30c0-8.284-6.716-15-15-15z" fill="#95b0ed"/><path d="m90.5 332v30c0 8.284 6.716 15 15 15h75c8.284 0 15-6.716 15-15v-30c0-8.284-6.716-15-15-15h-75c-8.284 0-15 6.716-15 15z" fill="#acd2f6"/><path d="m180.5 227-15 30 15 30h30c8.284 0 15-6.716 15-15v-30c0-8.284-6.716-15-15-15z" fill="#95b0ed"/><path d="m90.5 242v30c0 8.284 6.716 15 15 15h75c8.284 0 15-6.716 15-15v-30c0-8.284-6.716-15-15-15h-75c-8.284 0-15 6.716-15 15z" fill="#acd2f6"/></g></svg>