<?xml version="1.0" encoding="iso-8859-1"?>
<!-- Generator: Adobe Illustrator 19.0.0, SVG Export Plug-In . SVG Version: 6.00 Build 0)  -->
<svg version="1.1" id="Capa_1" xmlns="http://www.w3.org/2000/svg" xmlns:xlink="http://www.w3.org/1999/xlink" x="0px" y="0px"
	 viewBox="0 0 512 512" style="enable-background:new 0 0 512 512;" xml:space="preserve">
<path style="fill:#8FE673;" d="M414.89,430.189c-6.252,8.722-13.199,16.915-20.768,24.487
	c-18.127-7.455-34.769-18.496-49.038-32.764c-16.418-16.418-28.558-35.981-35.881-57.333c8.452-12.368,15.928-25.296,22.386-38.692
	C335.761,374.947,369.514,415.703,414.89,430.189z M256,60.117c-74.585,0-135.264,60.68-135.264,135.264
	c0,33.149-26.969,60.117-60.117,60.117v30.059c49.723,0,90.176-40.453,90.176-90.176c0-58.01,47.195-105.205,105.205-105.205
	s105.205,47.195,105.205,105.205v120.235c0,42.71,29.846,78.579,69.777,87.849c4.53-9.091,8.38-18.576,11.466-28.398
	c-28.928-4.328-51.185-29.336-51.185-59.45V195.382C391.264,120.797,330.585,60.117,256,60.117z M323.83,443.168
	c-10.068-10.068-18.92-21.276-26.309-33.312l-10.006-16.296l-14.307,14.412c-34.521,34.521-75.991,59.586-121.263,73.941
	c11.64,7.353,24.1,13.518,37.22,18.309c33.822-14.252,65.251-34.193,93.072-59.364c6.177,8.321,12.98,16.206,20.339,23.564
	c11.136,11.136,23.302,20.867,36.285,29.109c10.524-4.949,20.541-10.799,29.94-17.469
	C352.408,467.608,337.244,456.581,323.83,443.168z M256,0C148.267,0,60.618,87.648,60.618,195.382v30.059
	c16.574,0,30.059-13.484,30.059-30.059c0-91.159,74.164-165.323,165.323-165.323s165.323,74.164,165.323,165.323v120.235
	c0,15.85,12.334,28.865,27.908,29.974c1.412-9.455,2.151-19.128,2.151-28.972V195.382C451.382,87.648,363.733,0,256,0z
	 M166.915,301.678c28.371-28.372,43.997-66.122,43.997-106.297c0-24.862,20.227-45.088,45.088-45.088s45.088,20.226,45.088,45.088
	c0,119.534-87.674,218.963-202.092,237.394c6.964,9.387,14.749,18.127,23.246,26.121c48.753-11.285,93.483-35.95,129.711-72.179
	c51.068-51.069,79.193-119.019,79.193-191.336c0-41.436-33.711-75.147-75.147-75.147s-75.147,33.711-75.147,75.147
	c0,66.297-53.937,120.235-120.235,120.235v1.002c0,9.863,0.741,19.556,2.159,29.031
	C102.144,345.099,139.052,329.541,166.915,301.678z M281.321,485.678c-0.914-0.913-1.821-1.835-2.72-2.764
	c-13.646,10.381-27.972,19.74-42.901,28.036c6.674,0.692,13.445,1.051,20.3,1.051c16.681,0,32.878-2.106,48.344-6.058
	C296.278,499.689,288.571,492.926,281.321,485.678z M256,180.352c-8.3,0-15.029,6.729-15.029,15.029
	c0,96.403-76.031,175.381-171.277,180.125c3.209,10.132,7.223,19.908,11.968,29.255c48.289-4.755,93.049-25.839,127.773-60.563
	c39.72-39.721,61.594-92.572,61.594-148.817C271.029,187.081,264.3,180.352,256,180.352z"/>
<g>
	<path style="fill:#76CC5B;" d="M278.602,482.913c-7.27,5.531-14.74,10.762-22.385,15.707v13.377
		c16.603-0.018,32.728-2.12,48.127-6.054c-8.067-6.253-15.774-13.016-23.023-20.265
		C280.409,484.765,279.502,483.843,278.602,482.913z"/>
	<path style="fill:#76CC5B;" d="M256.217,120.24v30.059c24.761,0.118,44.871,20.295,44.871,45.083
		c0,52.066-16.638,100.313-44.871,139.718v47.249c48.364-50.544,74.929-116.692,74.929-186.967
		C331.147,154.019,297.553,120.359,256.217,120.24z"/>
	<path style="fill:#76CC5B;" d="M256.217,180.363v92.893c9.715-24.444,14.812-50.762,14.812-77.875
		C271.029,187.155,264.416,180.48,256.217,180.363z"/>
	<path style="fill:#76CC5B;" d="M297.521,409.855l-10.006-16.296l-14.307,14.412c-5.492,5.492-11.161,10.742-16.991,15.75v38.381
		c8.975-6.605,17.663-13.684,26.02-21.244c6.177,8.321,12.98,16.206,20.339,23.564c11.136,11.136,23.302,20.867,36.285,29.109
		c10.524-4.949,20.541-10.799,29.94-17.469c-16.394-8.454-31.559-19.481-44.972-32.894
		C313.763,433.1,304.911,421.892,297.521,409.855z"/>
	<path style="fill:#76CC5B;" d="M256.217,0.003v30.059c91.06,0.118,165.105,74.233,165.105,165.32v120.235
		c0,15.85,12.334,28.865,27.908,29.974c1.412-9.455,2.151-19.128,2.151-28.972V195.382C451.382,87.72,363.852,0.121,256.217,0.003z"
		/>
	<path style="fill:#76CC5B;" d="M391.264,315.616V195.382c0-74.513-60.561-135.143-135.047-135.261v30.059
		c57.91,0.118,104.988,47.264,104.988,105.202v120.235c0,42.71,29.846,78.579,69.777,87.849c4.53-9.091,8.38-18.576,11.466-28.398
		C413.522,370.738,391.264,345.73,391.264,315.616z"/>
	<path style="fill:#76CC5B;" d="M331.591,325.889c-6.459,13.396-13.934,26.323-22.386,38.692
		c7.323,21.352,19.463,40.915,35.881,57.333c14.269,14.268,30.91,25.309,49.038,32.764c7.569-7.572,14.515-15.765,20.768-24.487
		C369.514,415.703,335.761,374.947,331.591,325.889z"/>
</g>
<g>
</g>
<g>
</g>
<g>
</g>
<g>
</g>
<g>
</g>
<g>
</g>
<g>
</g>
<g>
</g>
<g>
</g>
<g>
</g>
<g>
</g>
<g>
</g>
<g>
</g>
<g>
</g>
<g>
</g>
</svg>
