<svg id="Capa_1" enable-background="new 0 0 512 512" height="512" viewBox="0 0 512 512" width="512" xmlns="http://www.w3.org/2000/svg"><g><g><g><path d="m256 442.4c-4.267 0-7.726-3.459-7.726-7.726v-49.694c0-4.267 3.459-7.726 7.726-7.726 4.268 0 7.726 3.459 7.726 7.726v49.694c0 4.267-3.458 7.726-7.726 7.726z" fill="#986b54"/><path d="m258.833 441.855c-.876.36-1.834.546-2.833.546-4.265 0-7.726-3.461-7.726-7.726v-49.696c0-4.265 3.461-7.726 7.726-7.726.999 0 1.957.185 2.833.546-2.864 1.113-4.893 3.914-4.893 7.181v49.696c0 3.264 2.029 6.066 4.893 7.179z" fill="#845c47"/><path d="m466.041 394.13c-140.025 11.07-280.058 11.07-420.083 0-9.912-.784-17.958-8.381-19.222-18.243-12.23-95.446-13.472-190.899-3.743-286.344 1.679-16.462 3.688-32.914 6.016-49.376 151.323-12.929 302.657-12.929 453.98 0 2.328 16.452 4.337 32.904 6.016 49.356 9.729 95.455 8.487 190.91-3.743 286.364-1.262 9.862-9.309 17.459-19.221 18.243z" fill="#ededed"/><path d="m489.006 89.523c-3.008 1.051-6.212 1.638-9.519 1.69-149.005 2.102-298 2.102-446.995 0-3.286-.051-6.49-.628-9.498-1.669 1.679-16.462 3.688-32.914 6.016-49.376 151.323-12.929 302.657-12.929 453.98 0 2.328 16.451 4.337 32.903 6.016 49.355z" fill="#dbdbdb"/><path d="m479.482 68.473c-148.997 2.106-297.994 2.106-446.99 0-12.756-.18-24.243-8.349-28.017-20.535-2.546-8.222-2.66-16.445-.342-24.667 3.583-12.709 15.183-21.505 28.385-21.692 148.997-2.106 297.993-2.106 446.99 0 12.756.18 24.243 8.349 28.017 20.535 2.546 8.222 2.66 16.445.342 24.667-3.583 12.709-15.183 21.505-28.385 21.692z" fill="#986b54"/><path d="m506.338 50.952c-4.708 10.425-15.154 17.359-26.857 17.523-148.995 2.102-297.99 2.102-446.985 0-12.764-.185-24.251-8.354-28.021-20.541-2.545-8.221-2.658-16.442-.34-24.663 3.585-12.712 15.185-21.51 28.381-21.695 6.964-.103 13.928-.196 20.892-.278-.608 1.339-1.112 2.73-1.525 4.172-2.318 8.221-2.204 16.452.35 24.673 3.77 12.187 15.257 20.356 28.011 20.531 142.032 2.009 284.052 2.112 426.094.278z" fill="#845c47"/><path d="m256 512c-22.739 0-41.238-18.5-41.238-41.238s18.499-41.238 41.238-41.238 41.238 18.5 41.238 41.238-18.499 41.238-41.238 41.238zm0-56.722c-8.538 0-15.484 6.946-15.484 15.484s6.946 15.484 15.484 15.484 15.484-6.946 15.484-15.484-6.946-15.484-15.484-15.484z" fill="#ffd064"/><g fill="#ffc250"><path d="m262.661 484.718c2.021.969 4.274 1.527 6.661 1.527 8.538 0 15.484-6.946 15.484-15.484s-6.946-15.484-15.484-15.484c-2.387 0-4.64.559-6.661 1.527 5.209 2.496 8.823 7.806 8.823 13.957s-3.615 11.461-8.823 13.957z"/><path d="m228.083 470.762c0-20.471 14.995-37.498 34.577-40.693-2.169-.354-4.393-.546-6.661-.546-22.739 0-41.238 18.5-41.238 41.238s18.5 41.239 41.239 41.239c2.268 0 4.491-.192 6.661-.546-19.582-3.194-34.578-20.222-34.578-40.692z"/></g></g></g><g><path d="m258.311 226.861c10.214 4.096 38.941 34.919 36.026 44.985-13.729 47.403-57.461 82.063-109.296 82.063-37.108 0-70.063-17.763-90.831-45.248 2.056-35.518.01-26.931.01-52.66l90.821-15.865c0-.001 17.248-35.741 73.27-13.275z" fill="#e49542"/><path d="m298.814 240.135c0 11.003-1.566 21.644-4.481 31.709l-109.292-31.709v-113.783c62.841 0 113.773 50.942 113.773 113.783z" fill="#80b4fb"/><path d="m185.051 240.125-90.831 68.528c-14.402-19.058-22.942-42.804-22.942-68.528z" fill="#95d6a4"/><path d="m159.812 101.122v113.784h-113.773c0-62.841 50.932-113.784 113.773-113.784z" fill="#db5c6e"/></g><g><g><path d="m405.451 164.489h-63.093c-3.872 0-7.01-3.139-7.01-7.01v-17.348c0-3.872 3.139-7.01 7.01-7.01h63.093c3.872 0 7.01 3.139 7.01 7.01v17.348c0 3.872-3.138 7.01-7.01 7.01z" fill="#db5c6e"/><path d="m352.082 276.087h-9.724c-3.872 0-7.01-3.139-7.01-7.01v-17.348c0-3.872 3.139-7.01 7.01-7.01h9.724c3.872 0 7.01 3.139 7.01 7.01v17.348c0 3.872-3.139 7.01-7.01 7.01z" fill="#95d6a4"/><path d="m432.205 220.288h-89.848c-3.872 0-7.01-3.139-7.01-7.01v-17.348c0-3.872 3.139-7.01 7.01-7.01h89.848c3.872 0 7.01 3.139 7.01 7.01v17.348c0 3.872-3.138 7.01-7.01 7.01z" fill="#80b4fb"/><path d="m445.734 331.886h-103.376c-3.872 0-7.01-3.139-7.01-7.01v-17.348c0-3.872 3.139-7.01 7.01-7.01h103.376c3.872 0 7.01 3.139 7.01 7.01v17.348c0 3.872-3.139 7.01-7.01 7.01z" fill="#e49542"/></g></g></g></svg>